<svg xmlns="http://www.w3.org/2000/svg" viewBox="0 0 35 54"><path style="fill:#fff;" d="M8,43v7.67A1.44,1.44,0,0,0,9.25,52h1.43A1.5,1.5,0,0,0,12,50.47V42a10.56,10.56,0,0,1-4,.77Zm3.73-14a8.16,8.16,0,0,0-4.5,1.28,11.06,11.06,0,0,0-3.35,2.86,6.08,6.08,0,0,1,2.12,1,5.93,5.93,0,0,1,1.71,1.78,6.68,6.68,0,0,1,1.23,3,4.76,4.76,0,0,1,0,1.8,3.52,3.52,0,0,1-.19.71,11.71,11.71,0,0,0,3.37-.79l.28-.16a13.43,13.43,0,0,0,2.38-1.87l.1-.12a5.58,5.58,0,0,0,1.6-3.41,6.42,6.42,0,0,0-1.15-4C13.77,29.2,12.45,29,11.74,29ZM14,33.24,11.84,34.8a.87.87,0,0,1-1.22-.19h0v-.06a.89.89,0,0,1,.19-1.23l2.12-1.57a.87.87,0,0,1,1.22.19h0V32A.89.89,0,0,1,14,33.24Zm-5.9,6a6.72,6.72,0,0,0-1.35-3,5.61,5.61,0,0,0-1.38-1.51,3.33,3.33,0,0,0-1.55-.64,2.29,2.29,0,0,0-1.29.16A4.41,4.41,0,0,0,.35,36.5,4.73,4.73,0,0,0,0,38a3.92,3.92,0,0,0,.13,1.2,4.47,4.47,0,0,0,.19.54A6,6,0,0,0,1,40.91a5.53,5.53,0,0,0,1.19,1.28A4.1,4.1,0,0,0,5,43a3.81,3.81,0,0,0,1.59-.42,2.32,2.32,0,0,0,1.13-1,3.4,3.4,0,0,0,.35-2.32Zm-4.67,2.2a2.68,2.68,0,0,1-1.72-1.26,2.68,2.68,0,0,1-.54-2c.14-.46.67-.45,1,0l1.64,2.26C4.06,40.91,3.87,41.48,3.43,41.44ZM27,43v-.24A10.56,10.56,0,0,1,23,42v8.47A1.5,1.5,0,0,0,24.32,52h1.43A1.44,1.44,0,0,0,27,50.69V43Zm-1-2.25A4.76,4.76,0,0,1,26,39a6.68,6.68,0,0,1,1.23-3A5.93,5.93,0,0,1,29,34.14a6.08,6.08,0,0,1,2.12-1,11.06,11.06,0,0,0-3.35-2.86A8.16,8.16,0,0,0,23.26,29c-.72,0-2,.19-3.61,2.08a6.42,6.42,0,0,0-1.15,4,5.58,5.58,0,0,0,1.6,3.41l.1.12a13.43,13.43,0,0,0,2.38,1.87l.28.16a11.71,11.71,0,0,0,3.37.79,3.52,3.52,0,0,1-.23-.67Zm-1.61-6.21v.06a.87.87,0,0,1-1.22.19h0L21,33.24A.89.89,0,0,1,20.84,32v-.06a.87.87,0,0,1,1.22-.19h0l2.12,1.57a.89.89,0,0,1,.24,1.23Zm10.23,2a4.41,4.41,0,0,0-2.15-2.22,2.29,2.29,0,0,0-1.29-.16,3.33,3.33,0,0,0-1.55.64,5.61,5.61,0,0,0-1.38,1.51,6.72,6.72,0,0,0-1.35,3,3.4,3.4,0,0,0,.36,2.32,2.32,2.32,0,0,0,1.13,1A3.81,3.81,0,0,0,30,43a4.1,4.1,0,0,0,2.8-.8A5.53,5.53,0,0,0,34,40.91a6,6,0,0,0,.67-1.17,4.47,4.47,0,0,0,.19-.54A3.92,3.92,0,0,0,35,38a4.73,4.73,0,0,0-.35-1.5Zm-1.36,3.68a2.68,2.68,0,0,1-1.72,1.26c-.44,0-.63-.53-.34-1l1.64-2.26c.29-.48.82-.49,1,0a2.68,2.68,0,0,1-.55,2Z"/></svg>
