<?xml version="1.0" encoding="UTF-8" standalone="no"?>
<svg
   xmlns:dc="http://purl.org/dc/elements/1.1/"
   xmlns:cc="http://creativecommons.org/ns#"
   xmlns:rdf="http://www.w3.org/1999/02/22-rdf-syntax-ns#"
   xmlns:svg="http://www.w3.org/2000/svg"
   xmlns="http://www.w3.org/2000/svg"
   xmlns:sodipodi="http://sodipodi.sourceforge.net/DTD/sodipodi-0.dtd"
   xmlns:inkscape="http://www.inkscape.org/namespaces/inkscape"
   id="Layer_1"
   data-name="Layer 1"
   viewBox="0 0 17 19.871212"
   version="1.1"
   sodipodi:docname="bag_light.svg"
   width="17"
   height="19.871212"
   inkscape:version="0.92.4 (5da689c313, 2019-01-14)">
  <metadata
     id="metadata125">
    <rdf:RDF>
      <cc:Work
         rdf:about="">
        <dc:format>image/svg+xml</dc:format>
        <dc:type
           rdf:resource="http://purl.org/dc/dcmitype/StillImage" />
      </cc:Work>
    </rdf:RDF>
  </metadata>
  <sodipodi:namedview
     pagecolor="#ffffff"
     bordercolor="#666666"
     borderopacity="1"
     objecttolerance="10"
     gridtolerance="10"
     guidetolerance="10"
     inkscape:pageopacity="0"
     inkscape:pageshadow="2"
     inkscape:window-width="1920"
     inkscape:window-height="1001"
     id="namedview123"
     showgrid="false"
     inkscape:zoom="18.363636"
     inkscape:cx="8.5"
     inkscape:cy="8"
     inkscape:window-x="-9"
     inkscape:window-y="-9"
     inkscape:window-maximized="1"
     inkscape:current-layer="Layer_1" />
  <defs
     id="defs115">
    <style
       id="style113">
      .cls-1 {
        fill: none;
      }

      .cls-2 {
        fill: #86868b;
      }
    </style>
  </defs>
  <title
     id="title117">image_large_1</title>
  <g
     id="bag_large"
     transform="translate(0,-10.128788)">
    <rect
       id="boundingbox"
       class="cls-1"
       width="17"
       height="44"
       x="0"
       y="0"
       style="fill:none" />
    <path
       id="bag"
       class="cls-2"
       d="M 14.5,14 H 12.712 A 4.227,4.227 0 0 0 4.288,14 H 2.5 A 2.5,2.5 0 0 0 0,16.5 v 11 A 2.5,2.5 0 0 0 2.5,30 h 12 A 2.5,2.5 0 0 0 17,27.5 v -11 A 2.5,2.5 0 0 0 14.5,14 Z m -6,-2.875 A 3.243,3.243 0 0 1 11.712,14 H 5.288 A 3.243,3.243 0 0 1 8.5,11.125 Z M 16,27.5 A 1.5,1.5 0 0 1 14.5,29 H 2.5 A 1.5,1.5 0 0 1 1,27.5 v -11 A 1.5,1.5 0 0 1 2.5,15 h 12 a 1.5,1.5 0 0 1 1.5,1.5 z"
       inkscape:connector-curvature="0"
       style="fill:#cccccc;fill-opacity:1" />
  </g>
</svg>
