<?xml version="1.0" encoding="UTF-8" standalone="no"?>
<svg
   xmlns:dc="http://purl.org/dc/elements/1.1/"
   xmlns:cc="http://creativecommons.org/ns#"
   xmlns:rdf="http://www.w3.org/1999/02/22-rdf-syntax-ns#"
   xmlns:svg="http://www.w3.org/2000/svg"
   xmlns="http://www.w3.org/2000/svg"
   xmlns:sodipodi="http://sodipodi.sourceforge.net/DTD/sodipodi-0.dtd"
   xmlns:inkscape="http://www.inkscape.org/namespaces/inkscape"
   viewBox="0 0 17.406717 17.403809"
   version="1.1"
   id="svg167"
   sodipodi:docname="search_light.svg"
   inkscape:version="0.92.4 (5da689c313, 2019-01-14)"
   width="17.406717"
   height="17.403809">
  <metadata
     id="metadata171">
    <rdf:RDF>
      <cc:Work
         rdf:about="">
        <dc:format>image/svg+xml</dc:format>
        <dc:type
           rdf:resource="http://purl.org/dc/dcmitype/StillImage" />
        <dc:title>image_large_1</dc:title>
      </cc:Work>
    </rdf:RDF>
  </metadata>
  <sodipodi:namedview
     pagecolor="#ffffff"
     bordercolor="#666666"
     borderopacity="1"
     objecttolerance="10"
     gridtolerance="10"
     guidetolerance="10"
     inkscape:pageopacity="0"
     inkscape:pageshadow="2"
     inkscape:window-width="1920"
     inkscape:window-height="1001"
     id="namedview169"
     showgrid="false"
     inkscape:zoom="2.6818182"
     inkscape:cx="8.7163918"
     inkscape:cy="30.374326"
     inkscape:window-x="-9"
     inkscape:window-y="-9"
     inkscape:window-maximized="1"
     inkscape:current-layer="svg167" />
  <defs
     id="defs155">
    <style
       id="style153">
      .a {
        fill: none;
      }

      .b {
        fill: #fff;
      }

      .c {
        fill: #86868b;
      }
    </style>
  </defs>
  <title
     id="title157">image_large_1</title>
  <g
     id="g165"
     transform="translate(-0.28360816,-56.970517)">
    <rect
       class="a"
       width="18"
       height="88"
       id="rect159"
       x="0"
       y="0"
       style="fill:none" />
    <path
       class="b"
       d="m 17.512,29.417 -4.786,-4.788 a 7.068,7.068 0 1 0 -0.777,0.778 l 4.785,4.788 a 0.55,0.55 0 1 0 0.777,-0.777 z M 1.427,20.054 a 5.946,5.946 0 1 1 5.946,5.954 5.957,5.957 0 0 1 -5.946,-5.954 z"
       id="path161"
       inkscape:connector-curvature="0"
       style="fill:#ffffff" />
    <path
       class="c"
       d="m 17.512,73.417 -4.786,-4.788 a 7.068,7.068 0 1 0 -0.777,0.778 l 4.785,4.788 a 0.55,0.55 0 1 0 0.777,-0.777 z M 1.427,64.054 a 5.946,5.946 0 1 1 5.946,5.954 5.957,5.957 0 0 1 -5.946,-5.954 z"
       id="path163"
       inkscape:connector-curvature="0"
       style="fill:#cccccc" />
  </g>
</svg>
